<?xml version="1.0" encoding="UTF-8"?>
<svg id="Layer_1" data-name="Layer 1" xmlns="http://www.w3.org/2000/svg" xmlns:xlink="http://www.w3.org/1999/xlink" viewBox="0 0 288 288">
  <defs>
    <style>
      .cls-1 {
        fill: url(#linear-gradient);
      }

      .cls-1, .cls-2, .cls-3 {
        stroke-width: 0px;
      }

      .cls-2 {
        fill: none;
      }

      .cls-3 {
        fill: url(#linear-gradient-2);
      }
    </style>
    <linearGradient id="linear-gradient" x1="162.4919867864" y1="273.063944718" x2="131.9053309377" y2="5.8192902997" gradientUnits="userSpaceOnUse">
      <stop offset=".0000000106" stop-color="#6a0dad"/>
      <stop offset=".0720431256" stop-color="#541085"/>
      <stop offset=".1477051008" stop-color="#421364"/>
      <stop offset=".2292946571" stop-color="#331549"/>
      <stop offset=".3174739463" stop-color="#281734"/>
      <stop offset=".4154531057" stop-color="#201825"/>
      <stop offset=".5310740015" stop-color="#1b191c"/>
      <stop offset=".708334944" stop-color="#1a1a1a"/>
    </linearGradient>
    <linearGradient id="linear-gradient-2" x1="171.1477375104" y1="381.1973349351" x2="127.5348538509" y2=".1386772183" gradientUnits="userSpaceOnUse">
      <stop offset=".1690870432" stop-color="#6a0dad"/>
      <stop offset=".2049115423" stop-color="#5a0f90"/>
      <stop offset=".2529389522" stop-color="#491270"/>
      <stop offset=".3073982728" stop-color="#3a1455"/>
      <stop offset=".3689241862" stop-color="#2e163f"/>
      <stop offset=".4407720963" stop-color="#25182e"/>
      <stop offset=".5295677502" stop-color="#1e1922"/>
      <stop offset=".6541264837" stop-color="#1b191b"/>
      <stop offset="1" stop-color="#1a1a1a"/>
    </linearGradient>
  </defs>
  <path class="cls-1" d="M181.2333213266,93.8093608959v93.2904422266c0,15.4367010008-6.1771343885,29.4601279089-16.2408654858,39.8406465693-6.7132192574,1.693474923-13.7553472921,2.5951296651-20.9924558408,2.5951296651-5.8603468255,0-11.5866910246-.5848671791-17.1180547095-1.7179404414,10.5876203887-10.4536177623,17.1180547095-24.8546613946,17.1180547095-40.717835793v-57.921185182h-37.2333213267v-26.9259761316c0-4.6663700388,3.7769108742-8.443280913,8.443280913-8.443280913h66.0233617403Z"/>
  <path class="cls-3" d="M144,21.2189781022c-67.8143269203,0-122.7749612907,54.9727555846-122.7749612907,122.7749612907,0,12.0496767915,1.7301360189,23.685075763,4.9709620242,34.6868996085v.0121955775c7.7853889952,26.5238938891,24.2942597339,49.2951936957,46.1882959535,65.0486822595,20.1640489273,14.4986082526,44.8847076955,23.0393050595,71.6157033129,23.0393050595,67.8143269203,0,122.7749612907-54.9727555846,122.7749612907-122.7870825049,0-67.8022057061-54.9606343704-122.7749612907-122.7749612907-122.7749612907ZM181.2333213266,221.0313205562c-5.14147702,2.4855181938-10.5876203887,4.4835851022-16.2408654858,5.9091291357-6.7132192574,1.693474923-13.7553472921,2.5951296651-20.9924558408,2.5951296651-5.8603468255,0-11.5866910246-.5848671791-17.1180547095-1.7179404414-7.0665191897-1.4254696702-13.8041296022-3.7282029274-20.1152666171-6.7863183594-19.4451791218-9.4179603938-34.7843898655-25.9756134426-42.5941700158-46.2613950555-3.6916161947-9.5520373835-5.7141486215-19.9324816805-5.7141486215-30.7759861078,0-3.0337242769.1583937815-6.0431317621.4629857669-9.003756937,1.6082546068-15.2783072193,7.2371085488-29.3748332294,15.802270874-41.1808215599,8.2604959765-11.3917105104,19.2623941852-20.6635470636,32.0430619965-26.8406814521,11.257707884-5.458264583,23.8921774914-8.516380015,37.2333213267-8.516380015s25.9756134426,3.058115432,37.2333213266,8.516380015c28.5951342628,13.8407163349,48.3083186374,43.1302548848,48.3083186374,77.025259949,0,33.9072006418-19.7131843746,63.1967391917-48.3083186374,77.0373811633Z"/>
  <path class="cls-2" d="M229.541639964,143.9939393929c0,33.9072006418-19.7131843746,63.1967391917-48.3083186374,77.0373811633-5.14147702,2.4855181938-10.5876203887,4.4835851022-16.2408654858,5.9091291357,10.0637310973-10.3805186603,16.2408654858-24.4039455685,16.2408654858-39.8406465693v-93.2904422266h-66.0233617403c-4.6663700388,0-8.443280913,3.7769108742-8.443280913,8.443280913v26.9259761316h37.2333213267v57.921185182c0,15.8631743984-6.5304343208,30.2642180307-17.1180547095,40.717835793-7.0665191897-1.4254696702-13.8041296022-3.7282029274-20.1152666171-6.7863183594-19.4451791218-9.4179603938-34.7843898655-25.9756134426-42.5941700158-46.2613950555-3.6916161947-9.5520373835-5.7141486215-19.9324816805-5.7141486215-30.7759861078,0-3.0337242769.1583937815-6.0431317621.4629857669-9.003756937,1.6082546068-15.2783072193,7.2371085488-29.3748332294,15.802270874-41.1808215599,8.2604959765-11.3917105104,19.2623941852-20.6635470636,32.0430619965-26.8406814521,11.257707884-5.458264583,23.8921774914-8.516380015,37.2333213267-8.516380015s25.9756134426,3.058115432,37.2333213266,8.516380015c28.5951342628,13.8407163349,48.3083186374,43.1302548848,48.3083186374,77.025259949Z"/>
</svg>