<?xml version="1.0" encoding="UTF-8"?>
<svg id="Layer_1" data-name="Layer 1" xmlns="http://www.w3.org/2000/svg" xmlns:xlink="http://www.w3.org/1999/xlink" viewBox="0 0 288 288">
  <defs>
    <style>
      .cls-1 {
        fill: url(#linear-gradient);
      }

      .cls-1, .cls-2 {
        stroke-width: 0px;
      }

      .cls-2 {
        fill: url(#linear-gradient-2);
      }
    </style>
    <linearGradient id="linear-gradient" x1="176.9199179734" y1="220.1355530734" x2="75.9125885744" y2="-41.9538335641" gradientUnits="userSpaceOnUse">
      <stop offset=".0172220866" stop-color="#60f"/>
      <stop offset=".1382160611" stop-color="#7603f5"/>
      <stop offset=".2630573509" stop-color="#810bf5"/>
      <stop offset=".48520741" stop-color="#a022f6"/>
      <stop offset=".6795962016" stop-color="#c03af8"/>
    </linearGradient>
    <linearGradient id="linear-gradient-2" x1="229.8704546636" y1="366.8139636313" x2="91.9185424345" y2="8.8623944064" gradientUnits="userSpaceOnUse">
      <stop offset=".3197194884" stop-color="#7603f5"/>
      <stop offset=".4927858919" stop-color="#840df5"/>
      <stop offset=".8187397309" stop-color="#a828f7"/>
      <stop offset="1" stop-color="#c03af8"/>
    </linearGradient>
  </defs>
  <path class="cls-1" d="M181.2333213266,93.8093608959v93.2904422266c0,15.4367010008-6.1771343885,29.4601279089-16.2408654858,39.8406465693-6.7132192574,1.693474923-13.7553472921,2.5951296651-20.9924558408,2.5951296651-5.8603468255,0-11.5866910246-.5848671791-17.1180547095-1.7179404414,10.5876203887-10.4536177623,17.1180547095-24.8546613946,17.1180547095-40.717835793v-57.921185182h-37.2333213266v-26.9259761316c0-4.6663700388,3.7769108742-8.443280913,8.443280913-8.443280913h66.0233617403Z"/>
  <path class="cls-2" d="M144,21.2189781022c-67.8143269203,0-122.7749612907,54.9727555846-122.7749612907,122.7749612907,0,12.0496767915,1.7301360189,23.685075763,4.9709620242,34.6868996085v.0121955775c7.7853889952,26.5238938891,24.2942597339,49.2951936957,46.1882959535,65.0486822595,20.1640489273,14.4986082526,44.8847076955,23.0393050595,71.6157033129,23.0393050595,67.8143269203,0,122.7749612907-54.9727555846,122.7749612907-122.7870825049,0-67.8022057061-54.9606343704-122.7749612907-122.7749612907-122.7749612907ZM181.2333213266,221.0313205562c-5.14147702,2.4855181938-10.5876203887,4.4835851022-16.2408654858,5.9091291357-6.7132192574,1.693474923-13.7553472921,2.5951296651-20.9924558408,2.5951296651-5.8603468255,0-11.5866910246-.5848671791-17.1180547095-1.7179404414-7.0665191897-1.4254696702-13.8041296022-3.7282029274-20.1152666171-6.7863183594-19.4451791218-9.4179603938-34.7843898655-25.9756134426-42.5941700158-46.2613950555-3.6916161947-9.5520373835-5.7141486215-19.9324816805-5.7141486215-30.7759861078,0-3.0337242769.1583937815-6.0431317621.4629857669-9.003756937,1.6082546068-15.2783072193,7.2371085488-29.3748332294,15.802270874-41.1808215599,8.2604959764-11.3917105104,19.2623941852-20.6635470636,32.0430619965-26.8406814521,11.257707884-5.458264583,23.8921774914-8.516380015,37.2333213266-8.516380015s25.9756134426,3.058115432,37.2333213266,8.516380015c28.5951342628,13.8407163349,48.3083186374,43.1302548848,48.3083186374,77.025259949,0,33.9072006418-19.7131843746,63.1967391917-48.3083186374,77.0373811633Z"/>
</svg>